<?xml version="1.0" standalone="no"?><!DOCTYPE svg PUBLIC "-//W3C//DTD SVG 1.1//EN" "http://www.w3.org/Graphics/SVG/1.1/DTD/svg11.dtd"><svg t="1553309987771" class="icon" style="" viewBox="0 0 1024 1024" version="1.1" xmlns="http://www.w3.org/2000/svg" p-id="61218" xmlns:xlink="http://www.w3.org/1999/xlink" width="128" height="128"><defs><style type="text/css"></style></defs><path d="M511.998977 961.168999c-60.277852 0-118.770034-11.813047-173.851537-35.110659-53.18634-22.49534-100.945063-54.69367-141.950989-95.700619-41.005926-41.004903-73.203232-88.763626-95.699596-141.950989-23.297612-55.081503-35.110659-113.573685-35.110659-173.851537s11.813047-118.770034 35.110659-173.851537c22.49534-53.18634 54.69367-100.945063 95.699596-141.950989 41.005926-41.005926 88.76465-73.203232 141.950989-95.699596 55.081503-23.297612 113.573685-35.110659 173.851537-35.110659 60.277852 0 118.770034 11.813047 173.85256 35.110659 53.18634 22.496363 100.945063 54.69367 141.950989 95.699596 41.005926 41.004903 73.204256 88.76465 95.700619 141.950989 23.297612 55.081503 35.110659 113.573685 35.110659 173.851537s-11.813047 118.770034-35.110659 173.851537c-22.49534 53.187363-54.69367 100.945063-95.700619 141.952013-41.004903 41.004903-88.76465 73.203232-141.950989 95.699596C630.770034 949.355953 572.277852 961.168999 511.998977 961.168999zM768.650311 575.614853c0-18.035772-14.620999-32.656771-32.656771-32.656771L542.7964 542.958082l0-319.701323c0-18.035772-14.620999-32.656771-32.656771-32.656771s-32.656771 14.620999-32.656771 32.656771l0 352.358093c0 18.035772 14.620999 32.656771 32.656771 32.656771l225.854934 0C754.029312 608.271624 768.650311 593.650625 768.650311 575.614853z" p-id="61219" fill="#2c2c2c"></path><path d="M849.096505 175.59832c37.513382 37.512359 68.153216 80.300884 91.338265 127.477346 13.278421-23.824615 20.410865-50.871621 20.410865-78.394465 0-88.682785-72.149227-160.830989-160.832012-160.830989-27.51568 0-54.570873 7.132444-78.396511 20.410865C768.795621 107.446128 811.585169 138.086985 849.096505 175.59832z" p-id="61220" fill="#2c2c2c"></path><path d="M171.181731 175.59832c38.033221-38.033221 81.492012-69.001537 129.447211-92.299149-23.575952-12.919241-50.241264-19.85521-77.381391-19.85521-88.682785 0-160.830989 72.148204-160.830989 160.830989 0 26.527167 6.610558 52.564169 18.954701 75.722612C104.369046 254.03781 134.486994 212.293057 171.181731 175.59832z" p-id="61221" fill="#2c2c2c"></path></svg>