<?xml version="1.0" standalone="no"?><!DOCTYPE svg PUBLIC "-//W3C//DTD SVG 1.1//EN" "http://www.w3.org/Graphics/SVG/1.1/DTD/svg11.dtd"><svg t="1553595642494" class="icon" style="" viewBox="0 0 1024 1024" version="1.1" xmlns="http://www.w3.org/2000/svg" p-id="30640" xmlns:xlink="http://www.w3.org/1999/xlink" width="128" height="128"><defs><style type="text/css"></style></defs><path d="M853.333 797.653L334.507 262.4l-109.44-112.853-54.4 54.186L290.133 323.2l0.214 0.213c-22.4 42.24-34.347 92.16-34.347 145.92v213.334L170.667 768v42.667H756.48L841.813 896 896 841.6l-42.667-43.947zM512 938.667c47.147 0 85.333-38.187 85.333-85.334H426.667c0 47.147 38.186 85.334 85.333 85.334z m256-312.32V469.333c0-131.2-69.76-240.64-192-269.653v-29.013c0-35.414-28.587-64-64-64s-64 28.586-64 64v29.013a233.664 233.664 0 0 0-31.147 9.813s-0.213 0-0.213 0.214c-0.213 0-0.427 0.213-0.64 0.213-9.813 3.84-19.413 8.32-28.8 13.227-0.213 0-0.427 0.213-0.64 0.213L768 626.347z" fill="#e6e6e6" p-id="30641"></path></svg>