<?xml version="1.0" standalone="no"?><!DOCTYPE svg PUBLIC "-//W3C//DTD SVG 1.1//EN" "http://www.w3.org/Graphics/SVG/1.1/DTD/svg11.dtd"><svg t="1553482286381" class="icon" style="" viewBox="0 0 1024 1024" version="1.1" xmlns="http://www.w3.org/2000/svg" p-id="3186" xmlns:xlink="http://www.w3.org/1999/xlink" width="128" height="128"><defs><style type="text/css"></style></defs><path d="M512.02 104.727c-247.183 0-448.285 183.13-448.285 408.243 0 73.154 21.734 144.847 62.979 207.993L83.543 911.101l187.823-53.67c71.874 41.737 154.842 63.757 240.653 63.757 247.168 0 448.246-183.144 448.246-408.217 0-225.113-201.076-408.244-448.246-408.244z m0 774.905c-82.205 0-161.436-21.929-229.12-63.419l-9.426-5.766-131.271 37.52 30.15-132.77-6.283-9.102c-40.34-58.286-61.66-125.066-61.66-193.125 0-202.202 182.872-366.7 407.61-366.7 224.723 0 407.557 164.498 407.557 366.7 0 202.188-182.834 366.662-407.558 366.662z" p-id="3187"></path></svg>