<?xml version="1.0" standalone="no"?><!DOCTYPE svg PUBLIC "-//W3C//DTD SVG 1.1//EN" "http://www.w3.org/Graphics/SVG/1.1/DTD/svg11.dtd"><svg t="1553607238371" class="icon" style="" viewBox="0 0 1024 1024" version="1.1" xmlns="http://www.w3.org/2000/svg" p-id="23935" xmlns:xlink="http://www.w3.org/1999/xlink" width="128" height="128"><defs><style type="text/css"></style></defs><path d="M128 495.0784c0 161.1008 95.488 176.8704 13.568 337.9456-3.5328 6.912 3.9936 14.5408 10.8032 10.7776 72.3712-39.936 137.3696-41.6512 180.4032-41.6512 55.04 0 93.1072 17.024 179.2 17.024 251.9552 0 384-156.3904 384-324.096C896 327.3984 741.9392 179.2 512 179.2S128 325.9904 128 495.0784z m217.6 48.9216a44.8 44.8 0 1 0 0-89.6 44.8 44.8 0 0 0 0 89.6z m166.4 0a44.8 44.8 0 1 0 0-89.6 44.8 44.8 0 0 0 0 89.6z m166.4 0a44.8 44.8 0 1 0 0-89.6 44.8 44.8 0 0 0 0 89.6z" p-id="23936" fill="#0FC260"></path></svg>