<?xml version="1.0" standalone="no"?><!DOCTYPE svg PUBLIC "-//W3C//DTD SVG 1.1//EN" "http://www.w3.org/Graphics/SVG/1.1/DTD/svg11.dtd"><svg t="1553478093685" class="icon" style="" viewBox="0 0 1024 1024" version="1.1" xmlns="http://www.w3.org/2000/svg" p-id="10117" xmlns:xlink="http://www.w3.org/1999/xlink" width="128" height="128"><defs><style type="text/css"></style></defs><path d="M126.15168 881.78688c-34.0992 0-34.0992-80.06656-3.71712-97.33632 1.77664 0 70.60992-63.54944 114.61632-91.88864 45.22496-29.19424 113.46432-73.26208 113.84832-96.66048l0.09728-22.14912c-43.1104-48.95232-66.78016-115.62496-66.78016-188.7744 0-113.1264 18.36032-228.864 154.73152-228.864 136.36096 0 154.73152 115.7376 154.73152 228.864 0 73.14432-23.68512 139.93472-66.78016 188.7744l0.1024 22.6048c0.37888 23.05536 68.70016 67.1232 113.8432 96.32256 49.27488 31.90784 78.72 54.73792 114.52416 91.88352 35.7888 37.14048 35.7888 97.21856 0 97.21856H126.15168zM646.94272 345.84576c0-13.09696 10.91072-23.71584 24.40192-23.71584h220.72832c13.4656 0 24.3968 10.52672 24.3968 23.71584 0 13.10208-10.9056 23.72096-24.3968 23.72096h-220.72832c-13.47072 0-24.40192-10.52672-24.40192-23.72096zM695.95136 511.86688c0-13.10208 10.94656-23.71584 24.43776-23.71584h171.63776c13.49632 0 24.43776 10.53184 24.43776 23.71584 0 13.09696-10.93632 23.71072-24.43776 23.71072h-171.63776c-13.49632 0.00512-24.43776-10.5216-24.43776-23.71072zM744.94976 654.16704c0-13.10208 10.73152-23.7056 24.57088-23.7056h122.368c13.57312 0 24.57088 10.5216 24.57088 23.7056 0 13.1072-10.73152 23.71584-24.57088 23.71584h-122.368c-13.56288-0.00512-24.57088-10.51648-24.57088-23.71584z" p-id="10118" fill="#03C366"></path></svg>