<?xml version="1.0" standalone="no"?><!DOCTYPE svg PUBLIC "-//W3C//DTD SVG 1.1//EN" "http://www.w3.org/Graphics/SVG/1.1/DTD/svg11.dtd"><svg t="1553477890958" class="icon" style="" viewBox="0 0 1065 1024" version="1.1" xmlns="http://www.w3.org/2000/svg" p-id="4005" xmlns:xlink="http://www.w3.org/1999/xlink" width="133.125" height="128"><defs><style type="text/css"></style></defs><path d="M904.768 970.884H53.773L8.961 942.172l-2.734-8.359c-1.293-4.005-12.792-40.793-0.858-78.853l1.141-3.894 2.43-3.294c27.722-37.913 96.964-75.975 170.378-116.207 67.243-36.909 168.642-92.661 169.217-122.237l0.153-28.015c-64.066-61.915-99.263-146.233-99.263-238.742 0-143.091 27.288-289.47 229.985-289.47C682.11 53.1 709.4 199.48 709.4 342.57c0 92.51-35.217 176.98-99.262 238.742l0.146 28.595c0.566 29.177 102.126 84.915 169.222 121.819 73.263 40.348 142.657 78.283 170.227 116.212l2.45 3.293 1.288 3.874c11.768 38.227 0.414 74.839-0.874 79.004l-2.732 8.328-45.097 28.446zM68.122 921.899h822.262l17.263-10.924c1.571-8.622 3.293-23-0.167-37.35-23.696-28.58-88.753-64.362-151.691-98.985-103.848-57.01-193.495-106.277-194.657-164.172l-0.146-50.59 8.04-7.3c58.768-53.156 91.237-127.712 91.237-210.03 0-152.273-29.605-240.48-180.869-240.48s-180.868 88.207-180.868 240.48c0 82.318 32.323 156.874 91.222 210.03l8.04 7.3-0.132 49.994c-1.307 58.47-90.938 107.758-194.636 164.753-63.07 34.638-128.146 70.42-151.858 98.981-3.445 14.384-1.722 28.733-0.136 37.369l17.096 10.924z m723.146-618.156H1064.5v49.849H791.268v-49.85z m50.016 173.54h223.218v49.843H841.284v-49.842z m74.09 174.115H1064.5v49.4H915.374v-49.4z m0 0" p-id="4006"></path></svg>