<?xml version="1.0" standalone="no"?><!DOCTYPE svg PUBLIC "-//W3C//DTD SVG 1.1//EN" "http://www.w3.org/Graphics/SVG/1.1/DTD/svg11.dtd"><svg t="1553594040392" class="icon" style="" viewBox="0 0 1024 1024" version="1.1" xmlns="http://www.w3.org/2000/svg" p-id="3911" xmlns:xlink="http://www.w3.org/1999/xlink" width="128" height="128"><defs><style type="text/css"></style></defs><path d="M1023.964528 513.867553a511.980278 511.980278 0 0 1-517.779239 510.099534C225.797722 1022.452043-1.09313 790.963817 0.003971 507.546163 1.101072 225.852525 233.007241-1.404028 517.78321 0.00653c279.18598 1.567287 507.382904 233.212241 506.181318 513.861023zM510.887149 52.249416C257.770368 52.562873 52.246857 259.340214 52.246857 513.083909s207.038555 458.901507 460.834493 458.640292 458.901507-207.038555 458.640292-460.834493S764.683087 52.249416 510.887149 52.249416z" fill="#2c2c2c" p-id="3912"></path><path d="M767.608688 282.118112c-52.242886 108.142773-102.500541 211.217986-152.549225 314.2932a24.136213 24.136213 0 0 1-14.262308 14.31455c-111.590804 34.428062-223.129364 68.960609-339.10857 104.799229 28.472373-58.773246 54.85503-113.262576 81.342172-167.699663 23.195841-47.645512 46.600654-95.186537 69.639767-142.884292 4.336159-8.985776 9.090262-15.672866 19.591082-18.964167 110.07576-33.801147 220.099277-68.07248 335.347082-103.858857zM351.546348 635.85469a48.899341 48.899341 0 0 0 10.448577 0c66.348465-20.426968 132.592444-41.219637 198.993151-61.333147a34.428062 34.428062 0 0 0 22.150983-20.113511c28.524616-58.564275 57.467174-116.971821 85.939547-175.536096 2.403173-5.224289 7.627461-10.082877 2.507659-16.352023-1.932987 0-3.761488-1.097101-5.224289-0.626914-42.316737 13.008478-83.588617 30.562088-127.002455 38.189549-65.512578 11.493435-105.060443 45.294582-126.688997 108.351744-14.993708 43.622809-39.809079 83.902074-61.124176 127.472641z" fill="#2c2c2c" p-id="3913"></path></svg>