<?xml version="1.0" standalone="no"?><!DOCTYPE svg PUBLIC "-//W3C//DTD SVG 1.1//EN" "http://www.w3.org/Graphics/SVG/1.1/DTD/svg11.dtd"><svg t="1553483241178" class="icon" style="" viewBox="0 0 1024 1024" version="1.1" xmlns="http://www.w3.org/2000/svg" p-id="6858" xmlns:xlink="http://www.w3.org/1999/xlink" width="128" height="128"><defs><style type="text/css"></style></defs><path d="M942.404267 890.504533l-3.145956-25.887857-7.070151-31.400392-10.214969-29.810915-14.085689-30.621013-14.140302-23.522418-19.624391-22.769209-21.963662-18.038329-30.592569-17.286258s-215.508764-79.610311-211.611876-122.535253c4.733156-132.499911 78.720569-137.844053 90.412374-262.467129 11.662222-124.594631-49.409138-236.107093-173.337032-237.026418-123.926756-0.946631-189.508267 88.436053-190.121528 222.886116-0.612124 134.448924 118.388053 229.510258 63.188764 309.28896-35.769458 32.679253-175.675164 79.6672-175.675164 79.6672l-23.548587 10.187662-21.963662 10.995484-19.624391 14.111858-21.962525 21.992107-15.700195 22.770347-11.773725 21.962524-9.409422 23.52128-9.435591 26.694542-4.705849 21.183147-3.895751 18.065635-2.366578 21.184285v18.817707l3.145956 18.845013 9.409422 12.55424 14.111858 9.409422 18.065635 1.586062h785.456925l14.112995-7.070151 10.995485-10.995484 7.070151-11.776 1.558755-14.891236-1.558755-19.624391z" p-id="6859" fill="#03C366"></path></svg>