<?xml version="1.0" standalone="no"?><!DOCTYPE svg PUBLIC "-//W3C//DTD SVG 1.1//EN" "http://www.w3.org/Graphics/SVG/1.1/DTD/svg11.dtd"><svg t="1553480520270" class="icon" style="" viewBox="0 0 1024 1024" version="1.1" xmlns="http://www.w3.org/2000/svg" p-id="12568" xmlns:xlink="http://www.w3.org/1999/xlink" width="128" height="128"><defs><style type="text/css"></style></defs><path d="M334.165333 526.933333C302.762667 489.728 277.333333 420.266667 277.333333 371.626667V298.666667c0-94.293333 76.586667-170.666667 170.666667-170.666667 94.293333 0 170.666667 76.501333 170.666667 170.666667v72.96c0 48.64-25.6 118.314667-56.832 155.392l-15.402667 18.261333c-25.173333 29.824-17.322667 67.754667 17.877333 84.906667l241.493334 117.845333c26.24 12.8 47.530667 46.634667 47.530666 76.074667v29.312c0 23.509333-19.2 42.581333-42.709333 42.581333H85.333333A42.581333 42.581333 0 0 1 42.666667 853.418667v-29.312c0-29.226667 21.248-63.274667 47.530666-76.117334l241.493334-117.845333c35.029333-17.066667 43.178667-54.954667 17.92-84.906667l-15.445334-18.304zM93.866667 844.8h708.266666v-20.693333c0-9.770667-10.026667-25.813333-18.773333-30.08L541.866667 676.266667c-65.152-31.786667-81.237333-108.629333-34.56-163.968l15.36-18.261334c23.552-27.904 44.8-85.930667 44.8-122.368V298.666667c0-65.92-53.504-119.466667-119.466667-119.466667A119.594667 119.594667 0 0 0 328.533333 298.666667v72.96c0 36.522667 21.162667 94.293333 44.8 122.282666l15.36 18.304c46.805333 55.424 30.506667 132.224-34.56 163.968L112.64 794.026667c-8.661333 4.224-18.773333 20.437333-18.773333 30.08v20.693333z m712.533333-379.733333V341.333333h51.2v123.733334H981.333333v51.2h-123.733333V640h-51.2v-123.733333H682.666667v-51.2h123.733333z" fill="#000000" p-id="12569"></path></svg>